<svg width="201" height="574" viewBox="0 0 201 574" fill="none" xmlns="http://www.w3.org/2000/svg">
<path d="M58.5 4.66668V5.33328H51.8333L31.1667 8.33328V15V21.6667H24.5H17.8333V35V48.3333H11.1667H4.5L-2 79.1667L17.8333 138.667H32.5V152H34.8333H41.5H48.1667V158.667V165.334H54.8333H61.5V172V178.667H62.8333H67.1667V185.334V192H80.5H93.8333V246V266H102.167H115.5V309.334V322.667H108.833H102.167V336V376.334H100.5H93.8333V415.334V445.334H100.5H102.167V482V488.667H108.833H115.5V502.667H105.5V520.334H102.167H100.5H93.8333V520V573.667H102.167H105.5V520.334H112.167H124.833V477V465.334H111.167L110.5 445.334V438.667V422H108.833H102.167V389.667V376.334H108.833H115.5V342.667V336H122.167H124.833V309.334V252.667H115.5H107.167V237V192H120.5H125.833V185.334V178.667H127.167H140.5V172V165.334H147.167H153.833V158.667V152H160.5H167.167V138.667V125.334H173.833H180.5L201 79.1667V48.3333L191 49V35V21.6667H173.833V1.66668L160.5 0.666683L160.167 0.333282L137.5 1.33328V0.666683L113.833 29L100.5 42L87.5 29L58.5 4.66668ZM122.833 49H124.167H137.5H150.833V59.6667V86.3333H144.167H137.5V79.6667V73H130.833H124.167V69V49H125.5H122.833ZM80.5004 145.334V152H93.8337H107.167V165.334H93.8337L80.5 178.667L93.8337 172V165.334H80.5004H65.8333V152V138.667H73.8337H80.5004V145.334Z" fill="black"/>
</svg>
